<mxfile host="app.diagrams.net" modified="2024-06-15T15:42:17.464Z" agent="Mozilla/5.0 (Macintosh; Intel Mac OS X 10_15_7) AppleWebKit/537.36 (KHTML, like Gecko) Chrome/114.0.0.0 Safari/537.36" version="24.5.4" etag="kwIKdH7pe5-5S6vyBJxl" type="device">
  <diagram id="7MHjwoCIipf8CRtUdrXT" name="Page-1">
    <mxGraphModel dx="-2165" dy="2830" grid="1" gridSize="75" guides="1" tooltips="1" connect="1" arrows="1" fold="1" page="1" pageScale="1" pageWidth="900" pageHeight="1125" background="#ffffff" math="0" shadow="0">
      <root>
        <mxCell id="0" />
        <mxCell id="1" parent="0" />
        <mxCell id="4235ce7b-3c45-4f27-853c-c4c679a09729" value="" style="html=1;shape=stencil(3VLREoIgEPwaXhsHMn03+w/CM5lIHCCtvw88UqZxpuk1HuT2dhfZGwirbMcHIDSbCDsSSvd55r8edxGXxS7HDrcDCIftkRvJzwqQsc7oK0yycdEl+w6MdIFlNWFVqw1cjL73DWI0CK208XbcZyOhDA5QQDnXp1SNx/uLrr9h77tF4cADE6qbHkOoB+pipGeKokXJPhEu6X+XroPalH8RC6UtLMgXaxRMv3CtVGp7cO28/n4eYQAp8/m2fAvfNKtf);" parent="1" vertex="1">
          <mxGeometry x="4837.5" y="-112.5" width="450" height="487.5" as="geometry" />
        </mxCell>
        <mxCell id="adf3b79f-4666-45db-9acf-1da05a6861ef" value="" style="html=1;shape=stencil(5VLBEoIgEP0ajjUOO2l3s/8gXZOJxAHS+vvATWXMW8c4wO6+92DfDgxy24gOGU8GBifGeZokfvd5s8qF7bB0VOyFkeKikBDrjL7hICv30ci2QSNdQKFgkNfa4NXoR1tRToJSK228nM5RyDhgihkex/gcs+l63+byDGT7Q0zsREBCdNd9sPQk3g4mDy8qJLFKyTbi/kCdJrVJ/uphxS6VtjhnPljMkP8Zq6VS26Orx/UHEwkjiJH1//Il+tVQvAE=);" parent="1" vertex="1">
          <mxGeometry x="5868.75" y="-168.75" width="600" height="600" as="geometry" />
        </mxCell>
        <mxCell id="080b4b46-ac1e-4b35-adc7-5d38cf612b61" value="" style="html=1;shape=stencil(5VLBEoIgEP0ajjUOO2l3s/8gXZOJxAHS+vvATWXMW8c4wO6+92DfDgxy24gOGU8GBifGeZokfvd5s8qF7bB0VOyFkeKikBDrjL7hICv30ci2QSNdQKFgkNfa4NXoR1tRToJSK228nM5RyDhgihkex/gcs+l63+byDGT7Q0zsREBCdNd9sPQk3g4mDy8qJLFKyTbi/kCdJrVJ/uphxS6VtjhnPljMkP8Zq6VS26Orx/UHEwkjiJH1//Il+tVQvAE=);" parent="1" vertex="1">
          <mxGeometry x="6768.75" y="-168.75" width="600" height="600" as="geometry" />
        </mxCell>
        <mxCell id="8f21a42f-5377-4bdd-97ad-03c1013a2c17" value="" style="html=1;shape=stencil(5VLBEoIgEP0ajjUOO2l3s/8gXZOJxAHS+vvATWXMW8c4wO6+92DfDgxy24gOGU8GBifGeZokfvd5s8qF7bB0VOyFkeKikBDrjL7hICv30ci2QSNdQKFgkNfa4NXoR1tRToJSK228nM5RyDhgihkex/gcs+l63+byDGT7Q0zsREBCdNd9sPQk3g4mDy8qJLFKyTbi/kCdJrVJ/uphxS6VtjhnPljMkP8Zq6VS26Orx/UHEwkjiJH1//Il+tVQvAE=);" parent="1" vertex="1">
          <mxGeometry x="7668.75" y="-168.75" width="600" height="600" as="geometry" />
        </mxCell>
        <mxCell id="9d01a3aa-58c5-4bbd-bd3d-cfddc2cd265c-5e409587-dffa-43eb-be67-0eb14fb86d68" value="" style="startArrow=classic;endArrow=none;dashed=0;strokeColor=#000000;strokeWidth=2;}" parent="1" source="9d01a3aa-58c5-4bbd-bd3d-cfddc2cd265c" target="5e409587-dffa-43eb-be67-0eb14fb86d68" edge="1">
          <mxGeometry width="50" height="50" relative="1" as="geometry" />
        </mxCell>
        <mxCell id="a9df3ca7-3601-4e5e-85a3-e7317673bf50-c280cc0e-9920-4283-8f10-fcca7c71fc17" value="" style="startArrow=none;endArrow=classic;dashed=0;strokeColor=#000000;strokeWidth=2;}" parent="1" source="a9df3ca7-3601-4e5e-85a3-e7317673bf50" target="c280cc0e-9920-4283-8f10-fcca7c71fc17" edge="1">
          <mxGeometry width="50" height="50" relative="1" as="geometry" />
        </mxCell>
        <mxCell id="9d01a3aa-58c5-4bbd-bd3d-cfddc2cd265c-57f5cd9c-0dbe-411c-814a-4a3f36455dbc" value="" style="startArrow=none;endArrow=none;dashed=0;strokeColor=#000000;strokeWidth=2;}" parent="1" source="9d01a3aa-58c5-4bbd-bd3d-cfddc2cd265c" target="57f5cd9c-0dbe-411c-814a-4a3f36455dbc" edge="1">
          <mxGeometry width="50" height="50" relative="1" as="geometry" />
        </mxCell>
        <mxCell id="f82595ef-7eb3-485f-8822-ec1a012d748a-4b37c75f-c6bc-4dea-830a-b089b9ca4e1d" value="" style="startArrow=none;endArrow=classic;dashed=0;strokeColor=#000000;strokeWidth=2;}" parent="1" source="f82595ef-7eb3-485f-8822-ec1a012d748a" target="4b37c75f-c6bc-4dea-830a-b089b9ca4e1d" edge="1">
          <mxGeometry width="50" height="50" relative="1" as="geometry" />
        </mxCell>
        <mxCell id="c280cc0e-9920-4283-8f10-fcca7c71fc17-f82595ef-7eb3-485f-8822-ec1a012d748a" value="" style="startArrow=none;endArrow=none;dashed=0;strokeColor=#000000;strokeWidth=2;}" parent="1" source="c280cc0e-9920-4283-8f10-fcca7c71fc17" target="f82595ef-7eb3-485f-8822-ec1a012d748a" edge="1">
          <mxGeometry width="50" height="50" relative="1" as="geometry" />
        </mxCell>
        <mxCell id="a9df3ca7-3601-4e5e-85a3-e7317673bf50-d733be94-c692-40c4-be91-423e2229adf8" value="" style="startArrow=none;endArrow=none;dashed=0;strokeColor=#000000;strokeWidth=2;}" parent="1" source="a9df3ca7-3601-4e5e-85a3-e7317673bf50" target="d733be94-c692-40c4-be91-423e2229adf8" edge="1">
          <mxGeometry width="50" height="50" relative="1" as="geometry" />
        </mxCell>
        <mxCell id="9d01a3aa-58c5-4bbd-bd3d-cfddc2cd265c-a9df3ca7-3601-4e5e-85a3-e7317673bf50" value="" style="startArrow=none;endArrow=classic;dashed=0;strokeColor=#000000;strokeWidth=2;}" parent="1" source="9d01a3aa-58c5-4bbd-bd3d-cfddc2cd265c" target="a9df3ca7-3601-4e5e-85a3-e7317673bf50" edge="1">
          <mxGeometry width="50" height="50" relative="1" as="geometry" />
        </mxCell>
        <mxCell id="57f5cd9c-0dbe-411c-814a-4a3f36455dbc-dad287d0-b4c5-4146-a4cd-2dfe2b69c551" value="" style="startArrow=none;endArrow=classic;dashed=0;strokeColor=#000000;strokeWidth=2;}" parent="1" source="57f5cd9c-0dbe-411c-814a-4a3f36455dbc" target="dad287d0-b4c5-4146-a4cd-2dfe2b69c551" edge="1">
          <mxGeometry width="50" height="50" relative="1" as="geometry" />
        </mxCell>
        <mxCell id="d733be94-c692-40c4-be91-423e2229adf8-021704f0-ffed-4ce0-9743-a1c59c4225e5" value="" style="startArrow=none;endArrow=classic;dashed=0;strokeColor=#000000;strokeWidth=2;}" parent="1" source="d733be94-c692-40c4-be91-423e2229adf8" target="021704f0-ffed-4ce0-9743-a1c59c4225e5" edge="1">
          <mxGeometry width="50" height="50" relative="1" as="geometry" />
        </mxCell>
        <mxCell id="57f5cd9c-0dbe-411c-814a-4a3f36455dbc" value="" style="ellipse;fillColor=#000000;" parent="1" vertex="1">
          <mxGeometry x="5696.25" y="296.25" width="7.5" height="7.5" as="geometry" />
        </mxCell>
        <mxCell id="d733be94-c692-40c4-be91-423e2229adf8" value="" style="ellipse;fillColor=#000000;" parent="1" vertex="1">
          <mxGeometry x="6596.25" y="296.25" width="7.5" height="7.5" as="geometry" />
        </mxCell>
        <mxCell id="f82595ef-7eb3-485f-8822-ec1a012d748a" value="" style="ellipse;fillColor=#000000;" parent="1" vertex="1">
          <mxGeometry x="7496.25" y="296.25" width="7.5" height="7.5" as="geometry" />
        </mxCell>
        <mxCell id="5e409587-dffa-43eb-be67-0eb14fb86d68" value="" style="ellipse;fillColor=#000000;" parent="1" vertex="1">
          <mxGeometry x="5321.25" y="146.25" width="7.5" height="7.5" as="geometry" />
        </mxCell>
        <mxCell id="28f51e68-4853-4825-990f-ab87ca70eded" value="" style="shape=image;imageAspect=0;aspect=fixed;image=data:image/svg+xml,PHN2ZyB4bWxucz0iaHR0cDovL3d3dy53My5vcmcvMjAwMC9zdmciIHdpZHRoPSI2MiIgaGVpZ2h0PSI2MiIgc3R5bGU9ImZpbGw6IG51bGw7Ij48Y2lyY2xlIGN4PSIzMSIgY3k9IjMxIiByPSIzMSIgc3R5bGU9ImZpbGw6IHJnYmEoMCwgMCwgMCwgMCk7Ii8+PGcgdHJhbnNmb3JtPSJ0cmFuc2xhdGUoNyw3KSI+PHN2ZyB4bWxucz0iaHR0cDovL3d3dy53My5vcmcvMjAwMC9zdmciIHdpZHRoPSI0OCIgaGVpZ2h0PSI0OCIgdmlld0JveD0iMCAwIDQ4IDQ4Ij48ZyBmaWxsPSJub25lIiBmaWxsLXJ1bGU9ImV2ZW5vZGQiPjxwYXRoIGZpbGw9IiMyNDJGM0UiIGQ9Ik02LjAyNSA0NGMuNDk5LTkuOTE1IDguMzctMTcuODIyIDE3Ljk3NS0xNy44MjIgMy4yNDggMCA2LjQzLjkxNCA5LjIwNSAyLjY0NCA1LjE0OSAzLjIxMSA4LjQ0OCA4Ljk2MSA4Ljc2OSAxNS4xNzhINi4wMjVabTguMTY3LTMwLjEyMmMwLTUuNDQ2IDQuNC05Ljg3OCA5LjgwOS05Ljg3OCA1LjQwNyAwIDkuODA2IDQuNDMyIDkuODA2IDkuODc4IDAgNS40NDctNC4zOTkgOS44NzktOS44MDYgOS44NzktNS40MDkgMC05LjgwOS00LjQzMi05LjgwOS05Ljg3OVptMjAuMDcxIDEzLjI0N2ExOS40MTkgMTkuNDE5IDAgMCAwLTUuNTY1LTIuMzU0IDExLjg5NCAxMS44OTQgMCAwIDAgNy4xMDktMTAuODkzQzM1LjgwNyA3LjMyOSAzMC41MSAyIDI0LjAwMSAyYy02LjUxMiAwLTExLjgwOSA1LjMyOS0xMS44MDkgMTEuODc4IDAgNC44NzcgMi45MzggOS4wNzIgNy4xMjUgMTAuOUMxMC41NDUgMjYuOTgxIDQgMzUuMiA0IDQ1YTEgMSAwIDAgMCAxIDFoMzhhMSAxIDAgMCAwIDEtMWMwLTcuMjgxLTMuNzMxLTE0LjEzLTkuNzM3LTE3Ljg3NVoiLz48L2c+PC9zdmc+PC9nPjwvc3ZnPg==;direction=east;" parent="1" vertex="1">
          <mxGeometry x="4989.595228669927" y="114.59522866992697" width="108.30954266014606" height="108.30954266014606" as="geometry" />
        </mxCell>
        <mxCell id="8147ed95-b103-44ef-a35d-047d9f03bd6d" value="" style="shape=image;imageAspect=0;aspect=fixed;image=data:image/svg+xml,PHN2ZyB4bWxucz0iaHR0cDovL3d3dy53My5vcmcvMjAwMC9zdmciIHdpZHRoPSI2MiIgaGVpZ2h0PSI2MiIgc3R5bGU9ImZpbGw6IG51bGw7Ij48Y2lyY2xlIGN4PSIzMSIgY3k9IjMxIiByPSIzMSIgc3R5bGU9ImZpbGw6IHJnYmEoMCwgMCwgMCwgMCk7Ii8+PGcgdHJhbnNmb3JtPSJ0cmFuc2xhdGUoNyw3KSI+PHN2ZyB4bWxucz0iaHR0cDovL3d3dy53My5vcmcvMjAwMC9zdmciIHdpZHRoPSI0OCIgaGVpZ2h0PSI0OCIgdmlld0JveD0iMCAwIDQ4IDQ4Ij48ZyBmaWxsPSJub25lIiBmaWxsLXJ1bGU9ImV2ZW5vZGQiPjxwYXRoIGZpbGw9IiNCRjA4MTYiIGQ9Im0zMi42MjYgMjQuNzk0IDEuNzUyLTUuMTIxIDEuNzY4IDUuMTIxaC0zLjUyWm0yLjg1NS02Ljg4MUgzMy4zN2wtNC4wNTcgMTEuMDg4aDEuOTUzbC44OTUtMi43ODNoNC40MzNsLjkyOCAyLjc4M2gxLjk1M0wzNS40OCAxNy45MTNabS0xMC42MTYgNC43NjloMy45MnYxLjU2N2gtMy45MnY0Ljc1MmgtMS45NTJWMTcuOTEzaDYuNzM2djEuNTY4aC00Ljc4NHYzLjIwMVptLTYuNjU3LTQuNzY5aDIuMTEzdjExLjA4OGgtMS43OTJ2LTguMzA1bC0yLjg4IDUuNTIyaC0xLjc2bC0yLjc4NC01LjQ4OXY4LjI3Mkg5LjMxM1YxNy45MTNoMi4xNzZsMy4zMjcgNi42MDggMy4zOTItNi42MDhaTTI0IDQ0LjAwMkMxMi45NzMgNDQuMDAyIDQgMzUuMDI5IDQgMjQuMDAxUzEyLjk3MyA0IDI0IDRjMTEuMDMgMCAyMC4wMDMgOC45NzMgMjAuMDAzIDIwLjAwMVMzNS4wMyA0NC4wMDIgMjQgNDQuMDAyWk0yNCAyQzExLjg2OSAyIDIgMTEuODY5IDIgMjQuMDAxYzAgMTIuMTMyIDkuODY5IDIyLjAwMSAyMiAyMi4wMDEgMTIuMTMzIDAgMjIuMDAzLTkuODY5IDIyLjAwMy0yMi4wMDFDNDYuMDAzIDExLjg2OSAzNi4xMzMgMiAyNCAyWiIvPjwvZz48L3N2Zz48L2c+PC9zdmc+;direction=east;" parent="1" vertex="1">
          <mxGeometry x="5075.426182935941" y="200.42618293594157" width="86.64763412811685" height="86.64763412811685" as="geometry" />
        </mxCell>
        <mxCell id="cf53d813-6b3c-4288-87fa-ba65731bee43" value="" style="shape=image;imageAspect=0;aspect=fixed;image=data:image/svg+xml,PHN2ZyB4bWxucz0iaHR0cDovL3d3dy53My5vcmcvMjAwMC9zdmciIHdpZHRoPSI2MiIgaGVpZ2h0PSI2MiIgc3R5bGU9ImZpbGw6IG51bGw7Ij48Y2lyY2xlIGN4PSIzMSIgY3k9IjMxIiByPSIzMSIgc3R5bGU9ImZpbGw6IHJnYmEoMCwgMCwgMCwgMCk7Ii8+PGcgdHJhbnNmb3JtPSJ0cmFuc2xhdGUoNyw3KSI+PHN2ZyB4bWxucz0iaHR0cDovL3d3dy53My5vcmcvMjAwMC9zdmciIHdpZHRoPSI0OCIgaGVpZ2h0PSI0OCIgdmlld0JveD0iMCAwIDQ4IDQ4Ij48ZyBmaWxsPSJub25lIiBmaWxsLXJ1bGU9ImV2ZW5vZGQiPjxwYXRoIGZpbGw9IiMyMzJGM0QiIGQ9Im0zNC41OSAyOS43OS0zLjU5MyAzLjU5MVYyMS43NmgtMlYzMy4yN2wtMy40NDEtMy40OTctMS40MjYgMS40MDMgNS4xOTUgNS4yOGMuMTg4LjE5LjQ0My4yOTcuNzA5LjI5OGguMDA0Yy4yNjUgMCAuNTItLjEwNi43MDctLjI5M2w1LjI1OS01LjI1OC0xLjQxNC0xLjQxNFptLTEyLjI0LTIuMDY2IDEuNDE0LTEuNDE0LTUuMjU4LTUuMjU4YS45OTYuOTk2IDAgMCAwLS43MDctLjI5M2gtLjAwNGEuOTk4Ljk5OCAwIDAgMC0uNzA5LjNsLTUuMTk2IDUuMjc3IDEuNDI2IDEuNDAyIDMuNDQxLTMuNDk1djEzLjMxMWgyVjI0LjEzMWwzLjU5MyAzLjU5M1ptLTIuMDE3IDkuODQ4IDcuMDY3LjAwNy4wMDItMi03LjA2Ny0uMDA3LS4wMDIgMlptMjUuNjkzLTguNDQyYzAgMi40ODctLjc1NCA0LjQ5OC0yLjI0MyA1Ljk3NS0yLjQ1MSAyLjQzNS02LjAwNyAyLjQ4NS02LjI4NyAyLjQ4NWgtLjAxMmwtNC43NjMtLjAwNS4wMDItMiA0Ljc2OC4wMDVjLjA0IDAgMi45OTgtLjAyIDQuODk0LTEuOTE0IDEuMDg5LTEuMDg4IDEuNjQxLTIuNjE3IDEuNjQxLTQuNTQ2IDAtMS4xODItLjMyNS0yLjk1LTMuMTMtNC42Ny0xLjQ3NC0uOTAzLTIuODU1LTEuMi0zLjM3OS0xLjI4NmExIDEgMCAwIDEtLjgzMi0xLjEwNWMtLjE3OC0yLjA5NS0xLjE1OS0zLjU2LTIuNzAzLTQuMDI5LTEuMzM1LS40MDQtMi43NjQuMDY4LTMuNjQ1IDEuMjA0YS45ODYuOTg2IDAgMCAxLS45NDEuMzc2Ljk5Ny45OTcgMCAwIDEtLjc4Ni0uNjRjLS42MTgtMS42NjYtMS41MTEtMy4wNjMtMi42NTUtNC4xNTctMS40MS0xLjM0OC01LjI4LTQuMjQ5LTEwLjc1MS0yLjAzOS0zLjEzNSAxLjI2Ny01LjU5MyA0LjkwNS01LjU5MyA4LjI4MyAwIC4zNzcuMDI0Ljc1NS4wNzEgMS4xMjJhMS4wMDEgMS4wMDEgMCAwIDEtLjgxNyAxLjExMUM3LjAyIDIzLjc2NCA0IDI1LjE1NyA0IDI5LjI5OGMwIDMuMTQ1IDEuNzk5IDQuODg0IDMuMzA4IDUuNzlhMy4zNTcgMy4zNTcgMCAwIDAgMS43MjEuNDczbDYuMTUyLjAwNi0uMDAyIDItNi4xNTEtLjAwNmE1LjM1MiA1LjM1MiAwIDAgMS0yLjc1LS43NTlDNC42ODEgMzUuODQ0IDIgMzMuNTk1IDIgMjkuMjk4YzAtMy43MTUgMi4wODQtNi41NDcgNS42MjMtNy43MTktLjAwOC0uMTctLjAxMi0uMzQtLjAxMi0uNTEyIDAtNC4yMDQgMi45NDMtOC41NjIgNi44NDUtMTAuMTM3IDQuNTQ1LTEuODM3IDkuMzYxLS45MTkgMTIuODgyIDIuNDQ4IDEuMDMyLjk4NiAxLjg5IDIuMTcyIDIuNTU5IDMuNTM2YTUuMzAxIDUuMzAxIDAgMCAxIDQuNjY1LS43ODhjMi4xODkuNjY0IDMuNjcyIDIuNTk3IDQuMDUzIDUuMjM0IDEuMTMzLjI4MiAyLjMxLjc3MiAzLjMyNiAxLjM5NSAyLjc0OSAxLjY4MyA0LjA4NSAzLjc3IDQuMDg1IDYuMzc1WiIvPjwvZz48L3N2Zz48L2c+PC9zdmc+;direction=east;" parent="1" vertex="1">
          <mxGeometry x="4863.556535837409" y="-105.1934641625913" width="135.3869283251826" height="135.3869283251826" as="geometry" />
        </mxCell>
        <mxCell id="13ce8d63-1e12-41fb-8f33-0d235f9d7769" value="" style="shape=image;imageAspect=0;aspect=fixed;image=data:image/svg+xml,PHN2ZyB4bWxucz0iaHR0cDovL3d3dy53My5vcmcvMjAwMC9zdmciIHdpZHRoPSI2MiIgaGVpZ2h0PSI2MiIgc3R5bGU9ImZpbGw6IG51bGw7Ij48Y2lyY2xlIGN4PSIzMSIgY3k9IjMxIiByPSIzMSIgc3R5bGU9ImZpbGw6IHJnYmEoMCwgMCwgMCwgMCk7Ii8+PGcgdHJhbnNmb3JtPSJ0cmFuc2xhdGUoNyw3KSI+PHN2ZyB4bWxucz0iaHR0cDovL3d3dy53My5vcmcvMjAwMC9zdmciIHdpZHRoPSI0OCIgaGVpZ2h0PSI0OCIgdmlld0JveD0iMCAwIDQ4IDQ4Ij48ZyBmaWxsPSJub25lIiBmaWxsLXJ1bGU9ImV2ZW5vZGQiPjxwYXRoIGZpbGw9IiNCMDA4NEQiIGQ9Ik0zMiAyOGMzLjMwOSAwIDYgMi42OTEgNiA2cy0yLjY5MSA2LTYgNi02LTIuNjkxLTYtNiAyLjY5MS02IDYtNlptMCAxNGM0LjQxMSAwIDgtMy41ODkgOC04cy0zLjU4OS04LTgtOC04IDMuNTg5LTggOCAzLjU4OSA4IDggOFptMi0zMi43NjRMMzguODgyIDE5aC05Ljc2NEwzNCA5LjIzNlpNMjcuNSAyMWgxM2ExIDEgMCAwIDAgLjg5NS0xLjQ0N2wtNi41LTEzYy0uMzQtLjY3OC0xLjQ1LS42NzgtMS43OSAwbC02LjUgMTNBMSAxIDAgMCAwIDI3LjUgMjFaTTkgMjloMTFWMThIOXYxMVptLTEgMmgxM2ExIDEgMCAwIDAgMS0xVjE3YTEgMSAwIDAgMC0xLTFIOGExIDEgMCAwIDAtMSAxdjEzYTEgMSAwIDAgMCAxIDFaTTQgNDRoNDBWNEg0djQwWk00NSAySDNhMSAxIDAgMCAwLTEgMXY0MmExIDEgMCAwIDAgMSAxaDQyYTEgMSAwIDAgMCAxLTFWM2ExIDEgMCAwIDAtMS0xWiIvPjwvZz48L3N2Zz48L2c+PC9zdmc+;direction=east;" parent="1" vertex="1">
          <mxGeometry x="5589.595228669927" y="-129.15477133007303" width="108.30954266014606" height="108.30954266014606" as="geometry" />
        </mxCell>
        <mxCell id="dad287d0-b4c5-4146-a4cd-2dfe2b69c551" value="" style="shape=image;imageAspect=0;aspect=fixed;image=data:image/svg+xml,PHN2ZyB4bWxucz0iaHR0cDovL3d3dy53My5vcmcvMjAwMC9zdmciIHdpZHRoPSI2MiIgaGVpZ2h0PSI2MiIgc3R5bGU9ImZpbGw6IG51bGw7Ij48Y2lyY2xlIGN4PSIzMSIgY3k9IjMxIiByPSIzMSIgc3R5bGU9ImZpbGw6IHJnYmEoMCwgMCwgMCwgMCk7Ii8+PGcgdHJhbnNmb3JtPSJ0cmFuc2xhdGUoNyw3KSI+PHN2ZyB4bWxucz0iaHR0cDovL3d3dy53My5vcmcvMjAwMC9zdmciIHdpZHRoPSI0OCIgaGVpZ2h0PSI0OCIgdmlld0JveD0iMCAwIDQ4IDQ4Ij48ZyBmaWxsPSJub25lIiBmaWxsLXJ1bGU9ImV2ZW5vZGQiPjxwYXRoIGZpbGw9IiNCRjA4MTYiIGQ9Im0yMC4yOSAxOC4wNCAxLjQxNCAxLjQxNC02Ljk5OCA2Ljk5OGEuOTk3Ljk5NyAwIDAgMS0xLjQxNCAwbC0zLjUtMy40OTkgMS40MTQtMS40MTQgMi43OTMgMi43OTIgNi4yOS02LjI5MVptMC0xMS4zNzMgMS40MTQgMS40MTQtNi45OTggNi45OThhLjk5Ny45OTcgMCAwIDEtMS40MTQgMGwtMy41LTMuNDk5IDEuNDE0LTEuNDE0IDIuNzkzIDIuNzkyIDYuMjktNi4yOTFabS0uMzM1IDI1LjkwOS0zLjIzIDMuMjMgMy4yMyAzLjIyOS0xLjQxNCAxLjQxNC0zLjIzLTMuMjI5LTMuMjMgMy4yMjktMS40MTQtMS40MTQgMy4yMy0zLjIyOS0zLjIzLTMuMjMgMS40MTQtMS40MTQgMy4yMyAzLjIzIDMuMjMtMy4yMyAxLjQxNCAxLjQxNFptMTkuMjg4IDEwLjYxYS44MDYuODA2IDAgMCAxLS44MDUuODA1SDguODA2QS44MDYuODA2IDAgMCAxIDggNDMuMTg2VjQuODA2QzggNC4zNjEgOC4zNiA0IDguODA2IDRoMjkuNjMyYy40NDQgMCAuODA1LjM2MS44MDUuODA2djM4LjM4Wk0zOC40MzggMkg4LjgwNkEyLjgxIDIuODEgMCAwIDAgNiA0LjgwNnYzOC4zOGEyLjgxIDIuODEgMCAwIDAgMi44MDYgMi44MDVoMjkuNjMyYTIuODA4IDIuODA4IDAgMCAwIDIuODA1LTIuODA1VjQuODA2QTIuODA5IDIuODA5IDAgMCAwIDM4LjQzOCAyWiIvPjwvZz48L3N2Zz48L2c+PC9zdmc+;direction=east;" parent="1" vertex="1">
          <mxGeometry x="5777.095228669927" y="245.84522866992697" width="108.30954266014606" height="108.30954266014606" as="geometry" />
        </mxCell>
        <mxCell id="9d01a3aa-58c5-4bbd-bd3d-cfddc2cd265c" value="" style="shape=image;imageAspect=0;aspect=fixed;image=data:image/svg+xml,PHN2ZyB4bWxucz0iaHR0cDovL3d3dy53My5vcmcvMjAwMC9zdmciIHdpZHRoPSI3OCIgaGVpZ2h0PSI3OCIgc3R5bGU9ImZpbGw6IG51bGw7Ij48Y2lyY2xlIGN4PSIzOSIgY3k9IjM5IiByPSIzOSIgc3R5bGU9ImZpbGw6IHJnYmEoMCwgMCwgMCwgMCk7Ii8+PGcgdHJhbnNmb3JtPSJ0cmFuc2xhdGUoNyw3KSI+PHN2ZyB4bWxucz0iaHR0cDovL3d3dy53My5vcmcvMjAwMC9zdmciIHdpZHRoPSI2NCIgaGVpZ2h0PSI2NCIgdmlld0JveD0iMCAwIDY0IDY0Ij48ZGVmcz48bGluZWFyR3JhZGllbnQgaWQ9IklBTS1JZGVudGl0eS1DZW50ZXJfc3ZnX19hIiB4MT0iMCUiIHgyPSIxMDAlIiB5MT0iMTAwJSIgeTI9IjAlIj48c3RvcCBvZmZzZXQ9IjAlIiBzdG9wLWNvbG9yPSIjQkQwODE2Ii8+PHN0b3Agb2Zmc2V0PSIxMDAlIiBzdG9wLWNvbG9yPSIjRkY1MjUyIi8+PC9saW5lYXJHcmFkaWVudD48L2RlZnM+PGcgZmlsbD0ibm9uZSIgZmlsbC1ydWxlPSJldmVub2RkIj48ZyBmaWxsPSJ1cmwoI0lBTS1JZGVudGl0eS1DZW50ZXJfc3ZnX19hKSI+PHBhdGggZD0iTTAgMGg2NHY2NEgweiIvPjwvZz48cGF0aCBmaWxsPSIjRkZGIiBkPSJNNTIuMDMyIDQ5LjIzNSA0MS40NCAzOC42NDNhLjk5OC45OTggMCAwIDEtLjE4My0xLjE2MSA2Ljg0NCA2Ljg0NCAwIDAgMC0xLjI0NC03Ljk3MyA2Ljg5NyA2Ljg5NyAwIDAgMC01LjczOS0xLjk3OWMtMi4xMzMuMjU3LTQuMDEzIDEuNDktNS4xNiAzLjM4MS0xLjM0NCAyLjIxNi0xLjI4NCA1LjA1OC4xNTIgNy4yNDIgMS45ODcgMy4wMjIgNS43NjUgNC4wMDIgOC45ODEgMi4zMzRhLjk5OC45OTggMCAwIDEgMS4xNjguMTgxbDEuNzkzIDEuNzkyYy4yMDcuMjA3LjMxMy40OTUuMjkuNzg3bC0uMTYyIDIuMDEyIDIuMDExLS4xNjJhLjk4NC45ODQgMCAwIDEgLjc4OC4yOWwuOTc1Ljk3NWExIDEgMCAwIDEgLjI5Ljc4OGwtLjE2MiAyLjAxMUw0Ny4yNSA0OWMuMjktLjAzMi41OC4wODIuNzg3LjI4OWwxLjQ2MyAxLjQ2MyAyLjUxMS4zODYuMDIxLTEuOTAzWm0yLjAwNC0uMzk5TDU0IDUyLjMxMWExIDEgMCAwIDEtMS4xNTIuOTc4bC0zLjk3NS0uNjFhMS4wMDIgMS4wMDIgMCAwIDEtLjU1Ni0uMjgxbC0xLjM2OC0xLjM2OC0yLjcyMi4yMTlhMS4wMDIgMS4wMDIgMCAwIDEtMS4wNzctMS4wNzdsLjIxOS0yLjcyMi0uMzIyLS4zMjItMi43MjIuMjE4YS45OTkuOTk5IDAgMCAxLTEuMDc3LTEuMDc2bC4yMTktMi43MjItLjk3MS0uOTcxYTguOSA4LjkgMCAwIDEtMTAuOTAxLTMuMzI1Yy0xLjg1OC0yLjgyNS0xLjkzMy02LjUwNi0uMTkyLTkuMzc4IDEuNDY4LTIuNDIgMy44ODUtMy45OTggNi42MzItNC4zM2E4Ljg5NSA4Ljg5NSAwIDAgMSA3LjM5MyAyLjU1MSA4LjgzMSA4LjgzMSAwIDAgMSAxLjkxOCA5LjYyNmwxMC4zOTcgMTAuMzk3YTEgMSAwIDAgMSAuMjkzLjcxOFpNMzYuMjU4IDMzLjQxM2ExLjQxMiAxLjQxMiAwIDAgMC0xLS40MTMgMS40MSAxLjQxIDAgMCAwLTEuMDAxLjQxMyAxLjQxOCAxLjQxOCAwIDAgMCAwIDIuMDAxYy41NTIuNTUxIDEuNDUuNTUxIDIuMDAxLS4wMDFhMS40MTcgMS40MTcgMCAwIDAgMC0yWm0xLjQxNC0xLjQxNGMuNjQ1LjY0NSAxIDEuNTAzIDEgMi40MTUgMCAuOTExLS4zNTUgMS43NjktMSAyLjQxNGEzLjQwNiAzLjQwNiAwIDAgMS0yLjQxNC45OTggMy40MDcgMy40MDcgMCAwIDEtMi40MTUtLjk5OCAzLjQxOCAzLjQxOCAwIDAgMSAwLTQuODI4IDMuNDE2IDMuNDE2IDAgMCAxIDQuODI5LS4wMDFabS0xOC42NyA0Ljk5NEgyNHYyaC01Yy00Ljg4NC0uMDEtOC43NDQtMy4yMjYtOC45ODEtNy40NzlhMTAuOTQgMTAuOTQgMCAwIDEtLjAxOS0uNTc4YzAtNS4yMDIgMy41Mi03LjIxMyA1LjcxLTcuOTU5LS4wMDktLjE4NS0uMDE0LS4zNy0uMDE0LS41NTggMC00LjM0IDIuOTc5LTguODM0IDYuOTMtMTAuNDU0IDQuNjA3LTEuOTAzIDkuNDg5LS45NTcgMTMuMDU2IDIuNTMzLjg4Ny44NTcgMi4wMDggMi4xMTggMi44MzkgMy42NTVhNC41NDMgNC41NDMgMCAwIDEgMi45NTUtMS4wNTFjMi4zMjkgMCA0LjkzNyAxLjg3NyA1LjQ1MiA1Ljk3NEM1MS42MjIgMjQuMjE3IDU0IDI2LjkwNCA1NCAzMS4wNjljMCAzLjA4NS0xLjE4NiA2Ljk2My02LjgzNSA3LjkxMWwtLjMzLTEuOTczQzUwLjM1OCAzNi40MTYgNTIgMzQuNTI5IDUyIDMxLjA2OWMwLTMuMzgxLTEuOTY5LTUuMzQ5LTYuMTk3LTYuMTkzYS45OTkuOTk5IDAgMCAxLS44MDEtLjkyMmMtLjE2OC0yLjg1Ny0xLjYxOC00Ljg1Mi0zLjUyNi00Ljg1Mi0uOTU5IDAtMS43MTYuNDM1LTIuNDU3IDEuNDExYTEgMSAwIDAgMS0xLjczNi0uMjZjLS42NjUtMS44MjMtMS45OTYtMy4zNTYtMi45OTUtNC4zMjEtMi45ODEtMi45MTgtNy4wNTQtMy43MDgtMTAuOTAyLTIuMTE3LTMuMTkyIDEuMzA5LTUuNjkgNS4wODctNS42OSA4LjYwNCAwIC4zOTIuMDIzLjc3Mi4wNzEgMS4xNTkuMDA0LjAzNS4wMDcuMDcuMDA4LjEwNVYyMy43MDRjMCAuNDk5LS4zNjUuOTE2LS44NDMuOTkyLTEuODgyLjQ5Mi00LjkzMiAxLjk1Mi00LjkzMiA2LjI0IDAgLjE1OS4wMDkuMzE5LjAxNi40Ny4yMDIgMy42MTkgMy43NDkgNS41OCA2Ljk4NiA1LjU4N1oiLz48L2c+PC9zdmc+PC9nPjwvc3ZnPg==;direction=east;" parent="1" vertex="1">
          <mxGeometry x="5645.495843048443" y="95.49584304844262" width="109.00831390311475" height="109.00831390311475" as="geometry" />
        </mxCell>
        <mxCell id="37f2847e-cfe2-4559-a158-a4857ef2eeee" value="" style="shape=image;imageAspect=0;aspect=fixed;image=data:image/svg+xml,PHN2ZyB4bWxucz0iaHR0cDovL3d3dy53My5vcmcvMjAwMC9zdmciIHdpZHRoPSI2MiIgaGVpZ2h0PSI2MiIgc3R5bGU9ImZpbGw6IG51bGw7Ij48Y2lyY2xlIGN4PSIzMSIgY3k9IjMxIiByPSIzMSIgc3R5bGU9ImZpbGw6IHJnYmEoMCwgMCwgMCwgMCk7Ii8+PGcgdHJhbnNmb3JtPSJ0cmFuc2xhdGUoNyw3KSI+PHN2ZyB4bWxucz0iaHR0cDovL3d3dy53My5vcmcvMjAwMC9zdmciIHdpZHRoPSI0OCIgaGVpZ2h0PSI0OCIgdmlld0JveD0iMCAwIDQ4IDQ4Ij48ZyBmaWxsPSJub25lIiBmaWxsLXJ1bGU9ImV2ZW5vZGQiPjxwYXRoIGZpbGw9IiNCMDA4NEQiIGQ9Ik0zMiAyOGMzLjMwOSAwIDYgMi42OTEgNiA2cy0yLjY5MSA2LTYgNi02LTIuNjkxLTYtNiAyLjY5MS02IDYtNlptMCAxNGM0LjQxMSAwIDgtMy41ODkgOC04cy0zLjU4OS04LTgtOC04IDMuNTg5LTggOCAzLjU4OSA4IDggOFptMi0zMi43NjRMMzguODgyIDE5aC05Ljc2NEwzNCA5LjIzNlpNMjcuNSAyMWgxM2ExIDEgMCAwIDAgLjg5NS0xLjQ0N2wtNi41LTEzYy0uMzQtLjY3OC0xLjQ1LS42NzgtMS43OSAwbC02LjUgMTNBMSAxIDAgMCAwIDI3LjUgMjFaTTkgMjloMTFWMThIOXYxMVptLTEgMmgxM2ExIDEgMCAwIDAgMS0xVjE3YTEgMSAwIDAgMC0xLTFIOGExIDEgMCAwIDAtMSAxdjEzYTEgMSAwIDAgMCAxIDFaTTQgNDRoNDBWNEg0djQwWk00NSAySDNhMSAxIDAgMCAwLTEgMXY0MmExIDEgMCAwIDAgMSAxaDQyYTEgMSAwIDAgMCAxLTFWM2ExIDEgMCAwIDAtMS0xWiIvPjwvZz48L3N2Zz48L2c+PC9zdmc+;direction=east;" parent="1" vertex="1">
          <mxGeometry x="6489.595228669927" y="-129.15477133007303" width="108.30954266014606" height="108.30954266014606" as="geometry" />
        </mxCell>
        <mxCell id="021704f0-ffed-4ce0-9743-a1c59c4225e5" value="" style="shape=image;imageAspect=0;aspect=fixed;image=data:image/svg+xml,PHN2ZyB4bWxucz0iaHR0cDovL3d3dy53My5vcmcvMjAwMC9zdmciIHdpZHRoPSI2MiIgaGVpZ2h0PSI2MiIgc3R5bGU9ImZpbGw6IG51bGw7Ij48Y2lyY2xlIGN4PSIzMSIgY3k9IjMxIiByPSIzMSIgc3R5bGU9ImZpbGw6IHJnYmEoMCwgMCwgMCwgMCk7Ii8+PGcgdHJhbnNmb3JtPSJ0cmFuc2xhdGUoNyw3KSI+PHN2ZyB4bWxucz0iaHR0cDovL3d3dy53My5vcmcvMjAwMC9zdmciIHdpZHRoPSI0OCIgaGVpZ2h0PSI0OCIgdmlld0JveD0iMCAwIDQ4IDQ4Ij48ZyBmaWxsPSJub25lIiBmaWxsLXJ1bGU9ImV2ZW5vZGQiPjxwYXRoIGZpbGw9IiNCRjA4MTYiIGQ9Im0yMC4yOSAxOC4wNCAxLjQxNCAxLjQxNC02Ljk5OCA2Ljk5OGEuOTk3Ljk5NyAwIDAgMS0xLjQxNCAwbC0zLjUtMy40OTkgMS40MTQtMS40MTQgMi43OTMgMi43OTIgNi4yOS02LjI5MVptMC0xMS4zNzMgMS40MTQgMS40MTQtNi45OTggNi45OThhLjk5Ny45OTcgMCAwIDEtMS40MTQgMGwtMy41LTMuNDk5IDEuNDE0LTEuNDE0IDIuNzkzIDIuNzkyIDYuMjktNi4yOTFabS0uMzM1IDI1LjkwOS0zLjIzIDMuMjMgMy4yMyAzLjIyOS0xLjQxNCAxLjQxNC0zLjIzLTMuMjI5LTMuMjMgMy4yMjktMS40MTQtMS40MTQgMy4yMy0zLjIyOS0zLjIzLTMuMjMgMS40MTQtMS40MTQgMy4yMyAzLjIzIDMuMjMtMy4yMyAxLjQxNCAxLjQxNFptMTkuMjg4IDEwLjYxYS44MDYuODA2IDAgMCAxLS44MDUuODA1SDguODA2QS44MDYuODA2IDAgMCAxIDggNDMuMTg2VjQuODA2QzggNC4zNjEgOC4zNiA0IDguODA2IDRoMjkuNjMyYy40NDQgMCAuODA1LjM2MS44MDUuODA2djM4LjM4Wk0zOC40MzggMkg4LjgwNkEyLjgxIDIuODEgMCAwIDAgNiA0LjgwNnYzOC4zOGEyLjgxIDIuODEgMCAwIDAgMi44MDYgMi44MDVoMjkuNjMyYTIuODA4IDIuODA4IDAgMCAwIDIuODA1LTIuODA1VjQuODA2QTIuODA5IDIuODA5IDAgMCAwIDM4LjQzOCAyWiIvPjwvZz48L3N2Zz48L2c+PC9zdmc+;direction=east;" parent="1" vertex="1">
          <mxGeometry x="6677.095228669927" y="245.84522866992697" width="108.30954266014606" height="108.30954266014606" as="geometry" />
        </mxCell>
        <mxCell id="a9df3ca7-3601-4e5e-85a3-e7317673bf50" value="" style="shape=image;imageAspect=0;aspect=fixed;image=data:image/svg+xml,PHN2ZyB4bWxucz0iaHR0cDovL3d3dy53My5vcmcvMjAwMC9zdmciIHdpZHRoPSI2MiIgaGVpZ2h0PSI2MiIgc3R5bGU9ImZpbGw6IG51bGw7Ij48Y2lyY2xlIGN4PSIzMSIgY3k9IjMxIiByPSIzMSIgc3R5bGU9ImZpbGw6IHJnYmEoMCwgMCwgMCwgMCk7Ii8+PGcgdHJhbnNmb3JtPSJ0cmFuc2xhdGUoNyw3KSI+PHN2ZyB4bWxucz0iaHR0cDovL3d3dy53My5vcmcvMjAwMC9zdmciIHdpZHRoPSI0OCIgaGVpZ2h0PSI0OCIgdmlld0JveD0iMCAwIDQ4IDQ4Ij48ZyBmaWxsPSJub25lIiBmaWxsLXJ1bGU9ImV2ZW5vZGQiPjxwYXRoIGZpbGw9IiNCRjA4MTYiIGQ9Ik00NC4wODMgMzIuNTgxYTcyLjg1MyA3Mi44NTMgMCAwIDAtMi4wODIuMTkxbC0uMTY4LjAxOGMtMS43NjUuMTgyLTMuNzYzLjM4Ny00LjcxNC4yNTctLjU5NC0uMDg1LTEuNjg4LS41Ni0yLjg0OC0xLjA2My0xLjk2Ni0uODUyLTQuNDE0LTEuOTE0LTYuNjI3LTIuMDg0LTMuMDQ2LS4yMzQtOC4zMS4zNC0xMS43MDMgMS45MzEtMS45NjItLjA4OC0zLjc4Mi0uNjE2LTUuMTk2LTEuNDg4YTQ2LjQ0IDQ2LjQ0IDAgMCAxLS4wMTItLjY0OWMwLTQuMTM2IDEuOTM4LTguMDE1IDUuMzItMTAuNjVhMTUuMTc2IDE1LjE3NiAwIDAgMSA3LjY2LTIuMDUyYzYuMTIgMCAxMS41NTMgMy42MTcgMTMuNjcyIDguOTQyaC0uODEzYy0uODE0IDAtMS40OTYuNTc2LTEuNjYzIDEuMzRsLS40MTItLjE1NmMtMi4wMy0uNzgzLTQuODEzLTEuODU0LTguMDMxLTEuNjYzLTQuNzA1LjI3Ni03LjAyLjU2LTguODQzIDEuMDhsLjU0OSAxLjkyNGMxLjY2OC0uNDc3IDMuODY4LS43NCA4LjQxLTEuMDA4IDIuNzg1LS4xNTggNS4zMzguODE4IDcuMTk1IDEuNTMzLjM5NS4xNTMuNzUyLjI4NiAxLjA5LjQwN3YuMjA1YzAgLjkzOS43NjYgMS43MDQgMS43MDUgMS43MDRoMy42NDdjLjkzNyAwIDEuNy0uNzYyIDEuNzA0LTEuNjk4bC4zNTQtLjAzMmExNzUuNTcgMTc1LjU3IDAgMCAwIDEuNTk1LS4xNTFsLjIxLS4wMjF2My4xODNaTTkuNzk5IDM0LjI0OWMtMi42NS4zNjMtNC43NDIuMDM5LTUuNjA4LS40OTYuNTI1LS4zNzEgMS43MS0uODkgMi41NDQtMS4yNTRhNDMuNDgyIDQzLjQ4MiAwIDAgMCAyLjE2LTEuMDA0YzEuMTU0Ljg3OSAyLjU4MyAxLjUzOCA0LjE2NSAxLjkzMS0uOTE1LjM2OC0yLjA0OC42NTgtMy4yNjEuODIzWk0zNi44NjggMjkuM2gzLjA1NXYtMS4zNjZoLTMuMDU1VjI5LjNaTTI2LjU4NiAxM2M4LjM2OCAwIDE1LjM5NiA2LjI5NSAxNi40MyAxNC40OTItLjI4Ny4wMjgtLjU5MS4wNTctLjkxMi4wODZsLS4xODUuMDE2YTEuNzA0IDEuNzA0IDAgMCAwLTEuNy0xLjY2aC0uNzExYy0yLjIwMS02LjQ3Ny04LjU3Ni0xMC45NDItMTUuNzk1LTEwLjk0Mi0yLjY3NCAwLTUuMjkuNjEyLTcuNjQxIDEuNzc1LjAxNy0uMDE0LjAzLS4wMjkuMDQ2LS4wNDJBMTYuNTkgMTYuNTkgMCAwIDEgMjYuNTg2IDEzWm0xOC45NCAxNC43OTRhMS42MjUgMS42MjUgMCAwIDAtLjQ5Ny0uMjk4QzQzLjk4MyAxOC4xODUgMzYuMDQ5IDExIDI2LjU4NiAxMWExOC41OTUgMTguNTk1IDAgMCAwLTExLjczMiA0LjE3NSAxOC41MDQgMTguNTA0IDAgMCAwLTYuODUgMTQuNDA2YzAgLjA0MS4wMDQuMDgyLjAwNC4xMjMtLjY2Ny4zMzUtMS4zNzIuNjU1LTIuMDczLjk2Mi0yLjEzNi45MzQtMy42OCAxLjYwOC0zLjkxIDIuODI2LS4wNTcuMzA5LS4wNjcuOTE0LjUyIDEuNTAyIDEuMDM4IDEuMDM3IDMuMDI4IDEuNDA5IDUuMDUgMS40MDkuODQyIDAgMS42ODgtLjA2NCAyLjQ3NC0uMTcyIDEuMzM5LS4xODIgMy44MzktLjY3MyA1LjUzNi0xLjkxNSAyLjY3OC0xLjk0MSA4LjczMy0yLjY2NyAxMS44ODYtMi40MjIgMS44NzkuMTQ1IDQuMTU1IDEuMTMyIDUuOTg1IDEuOTI1IDEuMzk2LjYwNyAyLjUgMS4wODUgMy4zNjYgMS4yMDggMS4xOS4xNjMgMy4xMzYtLjAzNyA1LjE5NS0uMjQ4bC4xNzMtLjAxN2E2Mi42MjcgNjIuNjI3IDAgMCAxIDEuNTkyLS4xNTFjLjIxNS0uMDIxLjQyOC0uMDM2LjcxMi0uMDU2Ljg4LS4wNjIgMS41NjktLjggMS41NjktMS42OHYtMy44MjljMC0uNDc4LS4yMDItLjkzNC0uNTU2LTEuMjUyWiIvPjwvZz48L3N2Zz48L2c+PC9zdmc+;direction=east;" parent="1" vertex="1">
          <mxGeometry x="6545.845228669927" y="95.84522866992697" width="108.30954266014606" height="108.30954266014606" as="geometry" />
        </mxCell>
        <mxCell id="87dbb20d-d18f-4346-97f0-5813b397ad10" value="" style="shape=image;imageAspect=0;aspect=fixed;image=data:image/svg+xml,PHN2ZyB4bWxucz0iaHR0cDovL3d3dy53My5vcmcvMjAwMC9zdmciIHdpZHRoPSI2MiIgaGVpZ2h0PSI2MiIgc3R5bGU9ImZpbGw6IG51bGw7Ij48Y2lyY2xlIGN4PSIzMSIgY3k9IjMxIiByPSIzMSIgc3R5bGU9ImZpbGw6IHJnYmEoMCwgMCwgMCwgMCk7Ii8+PGcgdHJhbnNmb3JtPSJ0cmFuc2xhdGUoNyw3KSI+PHN2ZyB4bWxucz0iaHR0cDovL3d3dy53My5vcmcvMjAwMC9zdmciIHdpZHRoPSI0OCIgaGVpZ2h0PSI0OCIgdmlld0JveD0iMCAwIDQ4IDQ4Ij48ZyBmaWxsPSJub25lIiBmaWxsLXJ1bGU9ImV2ZW5vZGQiPjxwYXRoIGZpbGw9IiNCMDA4NEQiIGQ9Ik0zMiAyOGMzLjMwOSAwIDYgMi42OTEgNiA2cy0yLjY5MSA2LTYgNi02LTIuNjkxLTYtNiAyLjY5MS02IDYtNlptMCAxNGM0LjQxMSAwIDgtMy41ODkgOC04cy0zLjU4OS04LTgtOC04IDMuNTg5LTggOCAzLjU4OSA4IDggOFptMi0zMi43NjRMMzguODgyIDE5aC05Ljc2NEwzNCA5LjIzNlpNMjcuNSAyMWgxM2ExIDEgMCAwIDAgLjg5NS0xLjQ0N2wtNi41LTEzYy0uMzQtLjY3OC0xLjQ1LS42NzgtMS43OSAwbC02LjUgMTNBMSAxIDAgMCAwIDI3LjUgMjFaTTkgMjloMTFWMThIOXYxMVptLTEgMmgxM2ExIDEgMCAwIDAgMS0xVjE3YTEgMSAwIDAgMC0xLTFIOGExIDEgMCAwIDAtMSAxdjEzYTEgMSAwIDAgMCAxIDFaTTQgNDRoNDBWNEg0djQwWk00NSAySDNhMSAxIDAgMCAwLTEgMXY0MmExIDEgMCAwIDAgMSAxaDQyYTEgMSAwIDAgMCAxLTFWM2ExIDEgMCAwIDAtMS0xWiIvPjwvZz48L3N2Zz48L2c+PC9zdmc+;direction=east;" parent="1" vertex="1">
          <mxGeometry x="7389.595228669927" y="-129.15477133007303" width="108.30954266014606" height="108.30954266014606" as="geometry" />
        </mxCell>
        <mxCell id="4b37c75f-c6bc-4dea-830a-b089b9ca4e1d" value="" style="shape=image;imageAspect=0;aspect=fixed;image=data:image/svg+xml,PHN2ZyB4bWxucz0iaHR0cDovL3d3dy53My5vcmcvMjAwMC9zdmciIHdpZHRoPSI2MiIgaGVpZ2h0PSI2MiIgc3R5bGU9ImZpbGw6IG51bGw7Ij48Y2lyY2xlIGN4PSIzMSIgY3k9IjMxIiByPSIzMSIgc3R5bGU9ImZpbGw6IHJnYmEoMCwgMCwgMCwgMCk7Ii8+PGcgdHJhbnNmb3JtPSJ0cmFuc2xhdGUoNyw3KSI+PHN2ZyB4bWxucz0iaHR0cDovL3d3dy53My5vcmcvMjAwMC9zdmciIHdpZHRoPSI0OCIgaGVpZ2h0PSI0OCIgdmlld0JveD0iMCAwIDQ4IDQ4Ij48ZyBmaWxsPSJub25lIiBmaWxsLXJ1bGU9ImV2ZW5vZGQiPjxwYXRoIGZpbGw9IiNCRjA4MTYiIGQ9Im0yMC4yOSAxOC4wNCAxLjQxNCAxLjQxNC02Ljk5OCA2Ljk5OGEuOTk3Ljk5NyAwIDAgMS0xLjQxNCAwbC0zLjUtMy40OTkgMS40MTQtMS40MTQgMi43OTMgMi43OTIgNi4yOS02LjI5MVptMC0xMS4zNzMgMS40MTQgMS40MTQtNi45OTggNi45OThhLjk5Ny45OTcgMCAwIDEtMS40MTQgMGwtMy41LTMuNDk5IDEuNDE0LTEuNDE0IDIuNzkzIDIuNzkyIDYuMjktNi4yOTFabS0uMzM1IDI1LjkwOS0zLjIzIDMuMjMgMy4yMyAzLjIyOS0xLjQxNCAxLjQxNC0zLjIzLTMuMjI5LTMuMjMgMy4yMjktMS40MTQtMS40MTQgMy4yMy0zLjIyOS0zLjIzLTMuMjMgMS40MTQtMS40MTQgMy4yMyAzLjIzIDMuMjMtMy4yMyAxLjQxNCAxLjQxNFptMTkuMjg4IDEwLjYxYS44MDYuODA2IDAgMCAxLS44MDUuODA1SDguODA2QS44MDYuODA2IDAgMCAxIDggNDMuMTg2VjQuODA2QzggNC4zNjEgOC4zNiA0IDguODA2IDRoMjkuNjMyYy40NDQgMCAuODA1LjM2MS44MDUuODA2djM4LjM4Wk0zOC40MzggMkg4LjgwNkEyLjgxIDIuODEgMCAwIDAgNiA0LjgwNnYzOC4zOGEyLjgxIDIuODEgMCAwIDAgMi44MDYgMi44MDVoMjkuNjMyYTIuODA4IDIuODA4IDAgMCAwIDIuODA1LTIuODA1VjQuODA2QTIuODA5IDIuODA5IDAgMCAwIDM4LjQzOCAyWiIvPjwvZz48L3N2Zz48L2c+PC9zdmc+;direction=east;" parent="1" vertex="1">
          <mxGeometry x="7577.095228669927" y="245.84522866992697" width="108.30954266014606" height="108.30954266014606" as="geometry" />
        </mxCell>
        <mxCell id="c280cc0e-9920-4283-8f10-fcca7c71fc17" value="" style="shape=image;imageAspect=0;aspect=fixed;image=data:image/svg+xml,PHN2ZyB4bWxucz0iaHR0cDovL3d3dy53My5vcmcvMjAwMC9zdmciIHdpZHRoPSI2MiIgaGVpZ2h0PSI2MiIgc3R5bGU9ImZpbGw6IG51bGw7Ij48Y2lyY2xlIGN4PSIzMSIgY3k9IjMxIiByPSIzMSIgc3R5bGU9ImZpbGw6IHJnYmEoMCwgMCwgMCwgMCk7Ii8+PGcgdHJhbnNmb3JtPSJ0cmFuc2xhdGUoNyw3KSI+PHN2ZyB4bWxucz0iaHR0cDovL3d3dy53My5vcmcvMjAwMC9zdmciIHdpZHRoPSI0OCIgaGVpZ2h0PSI0OCIgdmlld0JveD0iMCAwIDQ4IDQ4Ij48ZyBmaWxsPSJub25lIiBmaWxsLXJ1bGU9ImV2ZW5vZGQiPjxwYXRoIGZpbGw9IiNCRjA4MTYiIGQ9Ik00NC4wODMgMzIuNTgxYTcyLjg1MyA3Mi44NTMgMCAwIDAtMi4wODIuMTkxbC0uMTY4LjAxOGMtMS43NjUuMTgyLTMuNzYzLjM4Ny00LjcxNC4yNTctLjU5NC0uMDg1LTEuNjg4LS41Ni0yLjg0OC0xLjA2My0xLjk2Ni0uODUyLTQuNDE0LTEuOTE0LTYuNjI3LTIuMDg0LTMuMDQ2LS4yMzQtOC4zMS4zNC0xMS43MDMgMS45MzEtMS45NjItLjA4OC0zLjc4Mi0uNjE2LTUuMTk2LTEuNDg4YTQ2LjQ0IDQ2LjQ0IDAgMCAxLS4wMTItLjY0OWMwLTQuMTM2IDEuOTM4LTguMDE1IDUuMzItMTAuNjVhMTUuMTc2IDE1LjE3NiAwIDAgMSA3LjY2LTIuMDUyYzYuMTIgMCAxMS41NTMgMy42MTcgMTMuNjcyIDguOTQyaC0uODEzYy0uODE0IDAtMS40OTYuNTc2LTEuNjYzIDEuMzRsLS40MTItLjE1NmMtMi4wMy0uNzgzLTQuODEzLTEuODU0LTguMDMxLTEuNjYzLTQuNzA1LjI3Ni03LjAyLjU2LTguODQzIDEuMDhsLjU0OSAxLjkyNGMxLjY2OC0uNDc3IDMuODY4LS43NCA4LjQxLTEuMDA4IDIuNzg1LS4xNTggNS4zMzguODE4IDcuMTk1IDEuNTMzLjM5NS4xNTMuNzUyLjI4NiAxLjA5LjQwN3YuMjA1YzAgLjkzOS43NjYgMS43MDQgMS43MDUgMS43MDRoMy42NDdjLjkzNyAwIDEuNy0uNzYyIDEuNzA0LTEuNjk4bC4zNTQtLjAzMmExNzUuNTcgMTc1LjU3IDAgMCAwIDEuNTk1LS4xNTFsLjIxLS4wMjF2My4xODNaTTkuNzk5IDM0LjI0OWMtMi42NS4zNjMtNC43NDIuMDM5LTUuNjA4LS40OTYuNTI1LS4zNzEgMS43MS0uODkgMi41NDQtMS4yNTRhNDMuNDgyIDQzLjQ4MiAwIDAgMCAyLjE2LTEuMDA0YzEuMTU0Ljg3OSAyLjU4MyAxLjUzOCA0LjE2NSAxLjkzMS0uOTE1LjM2OC0yLjA0OC42NTgtMy4yNjEuODIzWk0zNi44NjggMjkuM2gzLjA1NXYtMS4zNjZoLTMuMDU1VjI5LjNaTTI2LjU4NiAxM2M4LjM2OCAwIDE1LjM5NiA2LjI5NSAxNi40MyAxNC40OTItLjI4Ny4wMjgtLjU5MS4wNTctLjkxMi4wODZsLS4xODUuMDE2YTEuNzA0IDEuNzA0IDAgMCAwLTEuNy0xLjY2aC0uNzExYy0yLjIwMS02LjQ3Ny04LjU3Ni0xMC45NDItMTUuNzk1LTEwLjk0Mi0yLjY3NCAwLTUuMjkuNjEyLTcuNjQxIDEuNzc1LjAxNy0uMDE0LjAzLS4wMjkuMDQ2LS4wNDJBMTYuNTkgMTYuNTkgMCAwIDEgMjYuNTg2IDEzWm0xOC45NCAxNC43OTRhMS42MjUgMS42MjUgMCAwIDAtLjQ5Ny0uMjk4QzQzLjk4MyAxOC4xODUgMzYuMDQ5IDExIDI2LjU4NiAxMWExOC41OTUgMTguNTk1IDAgMCAwLTExLjczMiA0LjE3NSAxOC41MDQgMTguNTA0IDAgMCAwLTYuODUgMTQuNDA2YzAgLjA0MS4wMDQuMDgyLjAwNC4xMjMtLjY2Ny4zMzUtMS4zNzIuNjU1LTIuMDczLjk2Mi0yLjEzNi45MzQtMy42OCAxLjYwOC0zLjkxIDIuODI2LS4wNTcuMzA5LS4wNjcuOTE0LjUyIDEuNTAyIDEuMDM4IDEuMDM3IDMuMDI4IDEuNDA5IDUuMDUgMS40MDkuODQyIDAgMS42ODgtLjA2NCAyLjQ3NC0uMTcyIDEuMzM5LS4xODIgMy44MzktLjY3MyA1LjUzNi0xLjkxNSAyLjY3OC0xLjk0MSA4LjczMy0yLjY2NyAxMS44ODYtMi40MjIgMS44NzkuMTQ1IDQuMTU1IDEuMTMyIDUuOTg1IDEuOTI1IDEuMzk2LjYwNyAyLjUgMS4wODUgMy4zNjYgMS4yMDggMS4xOS4xNjMgMy4xMzYtLjAzNyA1LjE5NS0uMjQ4bC4xNzMtLjAxN2E2Mi42MjcgNjIuNjI3IDAgMCAxIDEuNTkyLS4xNTFjLjIxNS0uMDIxLjQyOC0uMDM2LjcxMi0uMDU2Ljg4LS4wNjIgMS41NjktLjggMS41NjktMS42OHYtMy44MjljMC0uNDc4LS4yMDItLjkzNC0uNTU2LTEuMjUyWiIvPjwvZz48L3N2Zz48L2c+PC9zdmc+;direction=east;" parent="1" vertex="1">
          <mxGeometry x="7445.845228669927" y="95.84522866992697" width="108.30954266014606" height="108.30954266014606" as="geometry" />
        </mxCell>
        <mxCell id="3ab41c6e-1dec-4369-85b1-0c605106317a" value="Nominal User" style="text;labelPosition=right;verticalLabelPosition=bottom;fontColor=#000000;fontSize=25;rotation=0;spacingLeft=10;html=1;" parent="1" vertex="1">
          <mxGeometry x="4950" y="281.25" as="geometry" />
        </mxCell>
        <mxCell id="82cfab48-9a2b-495c-9693-252713a043f9" value="Shell" style="text;labelPosition=right;verticalLabelPosition=bottom;fontColor=#000000;fontSize=25;rotation=0;spacingLeft=10;html=1;" parent="1" vertex="1">
          <mxGeometry x="5006.25" y="-37.5" as="geometry" />
        </mxCell>
        <mxCell id="f5e612af-bc36-41db-adc0-1a5ae13c9057" value="Iam User" style="text;labelPosition=right;verticalLabelPosition=bottom;fontColor=#000000;fontSize=25;rotation=0;spacingLeft=10;html=1;" parent="1" vertex="1">
          <mxGeometry x="5775" y="187.5" as="geometry" />
        </mxCell>
        <mxCell id="b9b4f136-1d80-4d4b-8958-8791f8deb5db" value="Assume Role" style="text;labelPosition=right;verticalLabelPosition=bottom;fontColor=#000000;fontSize=25;rotation=0;spacingLeft=10;html=1;" parent="1" vertex="1">
          <mxGeometry x="5906.25" y="281.25" as="geometry" />
        </mxCell>
        <mxCell id="2ea35b4f-6b07-428d-9571-08b0e10f9878" value="Auth" style="text;labelPosition=right;verticalLabelPosition=bottom;fontColor=#000000;fontSize=25;rotation=0;spacingLeft=10;html=1;" parent="1" vertex="1">
          <mxGeometry x="5718.75" y="-93.75" as="geometry" />
        </mxCell>
        <mxCell id="7c04c4ce-c261-42b8-adbc-ca62bbe78bf9" value="Iam Role" style="text;labelPosition=right;verticalLabelPosition=bottom;fontColor=#000000;fontSize=25;rotation=0;spacingLeft=10;html=1;" parent="1" vertex="1">
          <mxGeometry x="6637.5" y="187.5" as="geometry" />
        </mxCell>
        <mxCell id="010fe0df-db84-4a9e-8b6b-34b8896bb963" value="Assume Role" style="text;labelPosition=right;verticalLabelPosition=bottom;fontColor=#000000;fontSize=25;rotation=0;spacingLeft=10;html=1;" parent="1" vertex="1">
          <mxGeometry x="6806.25" y="281.25" as="geometry" />
        </mxCell>
        <mxCell id="613f4612-5e23-4b8b-aaf8-a6f57a3a3479" value="Account 1" style="text;labelPosition=right;verticalLabelPosition=bottom;fontColor=#000000;fontSize=25;rotation=0;spacingLeft=10;html=1;" parent="1" vertex="1">
          <mxGeometry x="6618.75" y="-93.75" as="geometry" />
        </mxCell>
        <mxCell id="c76936f6-99fd-4968-99da-70ac5c2aa714" value="Account 2" style="text;labelPosition=right;verticalLabelPosition=bottom;fontColor=#000000;fontSize=25;rotation=0;spacingLeft=10;html=1;" parent="1" vertex="1">
          <mxGeometry x="7518.75" y="-93.75" as="geometry" />
        </mxCell>
        <mxCell id="5fdaf663-0c22-4515-8852-36d1359297ae" value="Permissions" style="text;labelPosition=right;verticalLabelPosition=bottom;fontColor=#000000;fontSize=25;rotation=0;spacingLeft=10;html=1;" parent="1" vertex="1">
          <mxGeometry x="7706.25" y="281.25" as="geometry" />
        </mxCell>
        <mxCell id="80e28884-a172-48ac-a1f7-b9144f6d88b8" value="Iam Role" style="text;labelPosition=right;verticalLabelPosition=bottom;fontColor=#000000;fontSize=25;rotation=0;spacingLeft=10;html=1;" parent="1" vertex="1">
          <mxGeometry x="7537.5" y="187.5" as="geometry" />
        </mxCell>
      </root>
    </mxGraphModel>
  </diagram>
</mxfile>
